%TF.GenerationSoftware,KiCad,Pcbnew,10.0.4*%
%TF.CreationDate,2026-09-21T15:29:47+05:30*%
%TF.ProjectId,MP3,4d50332e-6b69-4636-9164-5f7063625858,rev?*%
%TF.SameCoordinates,Original*%
%TF.FileFunction,Copper,L2,Bot*%
%TF.FilePolarity,Positive*%
%FSLAX46Y46*%
G04 Gerber Fmt 4.6, Leading zero omitted, Abs format (unit mm)*
G04 Created by KiCad (PCBNEW 10.0.4) date 2026-09-21 15:29:47*
%MOMM*%
%LPD*%
G01*
G04 APERTURE LIST*
G04 Aperture macros list*
%AMRoundRect*
0 Rectangle with rounded corners*
0 $1 Rounding radius*
0 $2 $3 $4 $5 $6 $7 $8 $9 X,Y pos of 4 corners*
0 Add a 4 corners polygon primitive as box body*
4,1,4,$2,$3,$4,$5,$6,$7,$8,$9,$2,$3,0*
0 Add four circle primitives for the rounded corners*
1,1,$1+$1,$2,$3*
1,1,$1+$1,$4,$5*
1,1,$1+$1,$6,$7*
1,1,$1+$1,$8,$9*
0 Add four rect primitives between the rounded corners*
20,1,$1+$1,$2,$3,$4,$5,0*
20,1,$1+$1,$4,$5,$6,$7,0*
20,1,$1+$1,$6,$7,$8,$9,0*
20,1,$1+$1,$8,$9,$2,$3,0*%
G04 Aperture macros list end*
%TA.AperFunction,ComponentPad*%
%ADD10RoundRect,0.200000X-0.200000X-0.450000X0.200000X-0.450000X0.200000X0.450000X-0.200000X0.450000X0*%
%TD*%
%TA.AperFunction,ComponentPad*%
%ADD11O,0.800000X1.300000*%
%TD*%
%TA.AperFunction,ComponentPad*%
%ADD12O,1.000000X2.100000*%
%TD*%
%TA.AperFunction,ComponentPad*%
%ADD13O,1.000000X1.800000*%
%TD*%
%TA.AperFunction,ViaPad*%
%ADD14C,0.500000*%
%TD*%
%TA.AperFunction,ViaPad*%
%ADD15C,0.250000*%
%TD*%
%TA.AperFunction,Conductor*%
%ADD16C,0.300000*%
%TD*%
%TA.AperFunction,Conductor*%
%ADD17C,0.127000*%
%TD*%
%TA.AperFunction,Conductor*%
%ADD18C,0.190000*%
%TD*%
%TA.AperFunction,Conductor*%
%ADD19C,0.200000*%
%TD*%
%TA.AperFunction,Conductor*%
%ADD20C,0.152000*%
%TD*%
G04 APERTURE END LIST*
D10*
%TO.P,J3,1,Pin_1_1*%
%TO.N,GND*%
X118725000Y-102500000D03*
D11*
%TO.P,J3,2,Pin_2_2*%
%TO.N,/UART_RXC*%
X119975000Y-102500000D03*
%TO.P,J3,3,Pin_3_3*%
%TO.N,/UART_TXC*%
X121225000Y-102500000D03*
%TO.P,J3,4,Pin_4_4*%
%TO.N,+3V3*%
X122475000Y-102500000D03*
%TD*%
D12*
%TO.P,J2,SH,SHIELD_SH*%
%TO.N,GND*%
X91370000Y-91900000D03*
D13*
X91370000Y-96080000D03*
D12*
X100010000Y-91900000D03*
D13*
X100010000Y-96080000D03*
%TD*%
D14*
%TO.N,Net-(J1-SWO)*%
X119800000Y-90600000D03*
D15*
X119850000Y-91463000D03*
D14*
%TO.N,GND*%
X107600000Y-89900000D03*
X131000000Y-88000000D03*
X122800000Y-84800000D03*
X108700000Y-104300000D03*
X97400000Y-95300000D03*
X106200000Y-94900000D03*
X126500000Y-86500000D03*
X135600000Y-86900000D03*
X106200000Y-93500000D03*
X131600000Y-106800000D03*
X132600000Y-102900000D03*
X134600000Y-106300000D03*
X124000000Y-102000000D03*
X133699999Y-87500000D03*
X106200000Y-98800000D03*
X110600000Y-105300000D03*
X129600000Y-103700000D03*
X107600000Y-88500000D03*
X113400000Y-95900000D03*
X134600000Y-108300000D03*
X109700000Y-105300000D03*
X121600000Y-101300000D03*
X130500000Y-107300000D03*
X134600000Y-104900000D03*
X124300000Y-100200000D03*
X117700000Y-92900000D03*
X116300000Y-104900000D03*
X134600000Y-88600000D03*
X126200000Y-98300000D03*
X122500000Y-97300000D03*
D15*
%TO.N,+3V3*%
X120850000Y-98338000D03*
D14*
X123500000Y-92800000D03*
D15*
X116400000Y-95650000D03*
D14*
X93290000Y-91325000D03*
X98100000Y-94500000D03*
D15*
X121400000Y-91750000D03*
D14*
X130699999Y-98700000D03*
D15*
X122350000Y-98337500D03*
D14*
X98900000Y-93300000D03*
X132400000Y-88900000D03*
X123500000Y-99100000D03*
X115800000Y-95700000D03*
X131000000Y-88900000D03*
X131699999Y-97700000D03*
X108000000Y-92700000D03*
X106600000Y-92100000D03*
X93900000Y-92400000D03*
%TO.N,/HSE_OUT*%
X126300000Y-97200000D03*
X127500000Y-96000000D03*
%TO.N,/UART_TX*%
X115700000Y-97200000D03*
D15*
X116662500Y-97150000D03*
D14*
%TO.N,Net-(U1-RF1)*%
X122500000Y-99400000D03*
D15*
X121350000Y-98337500D03*
D14*
X91500000Y-106100000D03*
X92500000Y-105300000D03*
X118300000Y-100700000D03*
X113600000Y-98300000D03*
%TO.N,Net-(U1-VFBSMPS)*%
X136400000Y-101300000D03*
X125200000Y-91300000D03*
D15*
X123500000Y-94600000D03*
D14*
%TO.N,/USB_D-*%
X120300000Y-89100000D03*
X121300000Y-90100000D03*
%TO.N,Net-(U1-PC14)*%
X132600000Y-106800000D03*
X130800000Y-109800000D03*
%TO.N,Net-(U1-PH3)*%
X120700000Y-104100000D03*
D15*
X116700000Y-93600000D03*
D14*
X132300000Y-105500000D03*
X110700000Y-103900000D03*
X133500000Y-109800000D03*
X133500000Y-108200000D03*
%TO.N,Net-(J2-D--PadA7)*%
X97000000Y-92400000D03*
D15*
X95940000Y-91325000D03*
D14*
%TO.N,/RF_MATCH*%
X135300000Y-101300000D03*
X130800000Y-106300000D03*
D15*
%TO.N,/LED_A*%
X118850000Y-98337500D03*
D14*
X118800000Y-99200000D03*
D15*
%TO.N,Net-(J2-CC1)*%
X94440000Y-91325000D03*
D14*
X93800000Y-90200000D03*
%TO.N,Net-(J2-CC2)*%
X96200000Y-90100000D03*
D15*
X97440000Y-91325000D03*
D14*
%TO.N,/UART_TXC*%
X113000000Y-98900000D03*
X116600000Y-102500000D03*
%TO.N,Net-(R6-Pad2)*%
X126800000Y-95600000D03*
X130800000Y-93900000D03*
X113000000Y-103100000D03*
X111600000Y-103300000D03*
X129400000Y-93900000D03*
X116900000Y-99200000D03*
%TD*%
%TO.N,Net-(J1-SWO)*%
D16*
X119800000Y-91500000D02*
X119800000Y-90600000D01*
%TO.N,GND*%
X134600000Y-104900000D02*
X134600000Y-106300000D01*
X106200000Y-94900000D02*
X106200000Y-93500000D01*
X131000000Y-88000000D02*
X132600000Y-88000000D01*
X129600000Y-103700000D02*
X129600000Y-106200000D01*
X107600000Y-88500000D02*
X107600000Y-89900000D01*
X100000000Y-95300000D02*
X97400000Y-95300000D01*
X124300000Y-84100000D02*
X126500000Y-86300000D01*
X100010000Y-96080000D02*
X100000000Y-96100000D01*
X113400000Y-95900000D02*
X116400000Y-92900000D01*
X134000000Y-88000000D02*
X134600000Y-88600000D01*
X118700000Y-102300000D02*
X118700000Y-102500000D01*
X132600000Y-88000000D02*
X133199999Y-88600000D01*
X130500000Y-107300000D02*
X130900000Y-107300000D01*
X111000000Y-104900000D02*
X110600000Y-105300000D01*
X131400000Y-106800000D02*
X131600000Y-106800000D01*
X133199999Y-88600000D02*
X134600000Y-88600000D01*
X107600000Y-89900000D02*
X107600000Y-88500000D01*
X129600000Y-106200000D02*
X130500000Y-107100000D01*
X106200000Y-94900000D02*
X106200000Y-98800000D01*
X124200000Y-84200000D02*
X123400000Y-84200000D01*
X131800000Y-103700000D02*
X132600000Y-102900000D01*
X130500000Y-107100000D02*
X131300000Y-107100000D01*
X124300000Y-101700000D02*
X124000000Y-102000000D01*
X126500000Y-86300000D02*
X126500000Y-86500000D01*
X134600000Y-106300000D02*
X134600000Y-108300000D01*
X123500000Y-98300000D02*
X123800000Y-98300000D01*
X130900000Y-107300000D02*
X131400000Y-106800000D01*
X116300000Y-104900000D02*
X111000000Y-104900000D01*
X131300000Y-107100000D02*
X131600000Y-106800000D01*
X133699999Y-88000000D02*
X133699999Y-87500000D01*
X100000000Y-94500000D02*
X100000000Y-91900000D01*
X118700000Y-102500000D02*
X118725000Y-102500000D01*
X122500000Y-97300000D02*
X123500000Y-98300000D01*
X124800000Y-98300000D02*
X126200000Y-98300000D01*
X108700000Y-104300000D02*
X109700000Y-105300000D01*
X124300000Y-98800000D02*
X124800000Y-98300000D01*
X124300000Y-100250000D02*
X124300000Y-100200000D01*
X130500000Y-107300000D02*
X130500000Y-107100000D01*
X106200000Y-93500000D02*
X106200000Y-94900000D01*
X126200000Y-98300000D02*
X124300000Y-100200000D01*
X134600000Y-87900000D02*
X135600000Y-86900000D01*
X124300000Y-98800000D02*
X124300000Y-101700000D01*
X116400000Y-92900000D02*
X117700000Y-92900000D01*
X100000000Y-91900000D02*
X100010000Y-91900000D01*
X99200000Y-95300000D02*
X97400000Y-95300000D01*
X131000000Y-88000000D02*
X134000000Y-88000000D01*
X100000000Y-96100000D02*
X99200000Y-95300000D01*
X100000000Y-96100000D02*
X100000000Y-91900000D01*
D17*
X122800000Y-84800000D02*
X123500000Y-84100000D01*
D16*
X99200000Y-95300000D02*
X100000000Y-94500000D01*
X123500000Y-84100000D02*
X124300000Y-84100000D01*
X129600000Y-103700000D02*
X131800000Y-103700000D01*
X123800000Y-98300000D02*
X124300000Y-98800000D01*
X134600000Y-88600000D02*
X134600000Y-87900000D01*
%TO.N,+3V3*%
X118700000Y-100000000D02*
X119100000Y-100000000D01*
X122350000Y-98337500D02*
X122387500Y-98300000D01*
X106600000Y-92100000D02*
X107200000Y-92700000D01*
X118700000Y-100000000D02*
X119100000Y-100000000D01*
X120800000Y-98300000D02*
X120850000Y-98338000D01*
X107200000Y-92700000D02*
X108000000Y-92700000D01*
X116600000Y-100000000D02*
X118100000Y-100000000D01*
X98100000Y-94100000D02*
X98900000Y-93300000D01*
X116500000Y-95900000D02*
X117400000Y-95900000D01*
X122500000Y-102500000D02*
X122475000Y-102500000D01*
X121400000Y-91900000D02*
X122300000Y-92800000D01*
X114900000Y-98300000D02*
X116600000Y-100000000D01*
D18*
X121400000Y-91900000D02*
X121400000Y-91800000D01*
D16*
X93290000Y-91325000D02*
X93300000Y-91325000D01*
X121200000Y-97600000D02*
X121700000Y-97600000D01*
D19*
X116300000Y-95700000D02*
X116400000Y-95600000D01*
D16*
X118100000Y-100000000D02*
X118200000Y-99900000D01*
X121200000Y-97600000D02*
X121700000Y-97600000D01*
X115800000Y-95700000D02*
X114900000Y-96600000D01*
X120700000Y-98400000D02*
X120700000Y-98100000D01*
X121700000Y-97600000D02*
X122350000Y-98250000D01*
X120700000Y-98100000D02*
X121200000Y-97600000D01*
X122387500Y-98300000D02*
X122700000Y-98300000D01*
X116300000Y-95700000D02*
X116500000Y-95900000D01*
X120700000Y-98100000D02*
X121200000Y-97600000D01*
D20*
X93300000Y-91800000D02*
X93300000Y-91300000D01*
D16*
X98100000Y-94500000D02*
X98100000Y-94100000D01*
X120700000Y-98250000D02*
X120700000Y-98200000D01*
X123500000Y-101500000D02*
X122500000Y-102500000D01*
X118100000Y-100000000D02*
X118200000Y-99900000D01*
X122700000Y-98300000D02*
X123500000Y-99100000D01*
X114900000Y-96600000D02*
X114900000Y-98300000D01*
X116100000Y-98900000D02*
X116100000Y-99500000D01*
X132400000Y-88900000D02*
X131000000Y-88900000D01*
X122350000Y-98250000D02*
X122350000Y-98337500D01*
X117400000Y-95900000D02*
X121400000Y-91900000D01*
X115800000Y-95700000D02*
X116300000Y-95700000D01*
X93300000Y-91300000D02*
X93290000Y-91325000D01*
X98900000Y-93300000D02*
X98100000Y-94100000D01*
X130699999Y-98700000D02*
X131699999Y-97700000D01*
X123500000Y-99100000D02*
X123500000Y-101500000D01*
X122300000Y-92800000D02*
X123500000Y-92800000D01*
X120700000Y-98400000D02*
X120700000Y-98200000D01*
X116100000Y-99500000D02*
X116600000Y-100000000D01*
X119100000Y-100000000D02*
X120700000Y-98400000D01*
X95600000Y-94100000D02*
X93900000Y-92400000D01*
X117400000Y-97600000D02*
X116100000Y-98900000D01*
X120700000Y-98200000D02*
X120700000Y-98100000D01*
X117400000Y-95900000D02*
X117400000Y-97600000D01*
X118600000Y-99900000D02*
X118700000Y-100000000D01*
X132400000Y-88900000D02*
X131000000Y-88900000D01*
X118200000Y-99900000D02*
X118600000Y-99900000D01*
X93900000Y-92400000D02*
X93300000Y-91800000D01*
X116600000Y-100000000D02*
X118100000Y-100000000D01*
X122800000Y-98700000D02*
X123100000Y-98700000D01*
X118600000Y-99900000D02*
X118700000Y-100000000D01*
X120700000Y-98200000D02*
X120700000Y-98250000D01*
X120700000Y-98200000D02*
X120800000Y-98300000D01*
X98100000Y-94100000D02*
X98100000Y-94500000D01*
X119100000Y-100000000D02*
X120700000Y-98400000D01*
X118200000Y-99900000D02*
X118600000Y-99900000D01*
X121700000Y-97600000D02*
X122800000Y-98700000D01*
X98100000Y-94100000D02*
X95600000Y-94100000D01*
X123100000Y-98700000D02*
X123500000Y-99100000D01*
%TO.N,/HSE_OUT*%
X127500000Y-96000000D02*
X126300000Y-97200000D01*
%TO.N,/UART_TX*%
X116612000Y-97200000D02*
X115700000Y-97200000D01*
X116662000Y-97150000D02*
X116612000Y-97200000D01*
X116662500Y-97150000D02*
X116662000Y-97150000D01*
%TO.N,Net-(U1-RF1)*%
X118300000Y-100700000D02*
X116000000Y-100700000D01*
X121350000Y-98337500D02*
X121437500Y-98337500D01*
X92300000Y-105300000D02*
X91500000Y-106100000D01*
X116000000Y-100700000D02*
X113600000Y-98300000D01*
X92500000Y-105300000D02*
X92300000Y-105300000D01*
X121437500Y-98337500D02*
X122500000Y-99400000D01*
%TO.N,Net-(U1-VFBSMPS)*%
X127300000Y-92900000D02*
X131300000Y-96900000D01*
X132000000Y-96900000D02*
X136400000Y-101300000D01*
X125200000Y-92900000D02*
X125200000Y-91300000D01*
X123500000Y-94600000D02*
X125200000Y-92900000D01*
X125200000Y-92900000D02*
X127300000Y-92900000D01*
X131300000Y-96900000D02*
X132000000Y-96900000D01*
%TO.N,/USB_D-*%
X120300000Y-89100000D02*
X121300000Y-90100000D01*
%TO.N,Net-(U1-PC14)*%
X132600000Y-106800000D02*
X132600000Y-108000000D01*
X132600000Y-108000000D02*
X130800000Y-109800000D01*
%TO.N,Net-(U1-PH3)*%
X133500000Y-108200000D02*
X133500000Y-109800000D01*
X111300000Y-104100000D02*
X120700000Y-104100000D01*
X110800000Y-103900000D02*
X110800000Y-99500000D01*
X132300000Y-105500000D02*
X132900000Y-106100000D01*
X111100000Y-103900000D02*
X111300000Y-104100000D01*
X110800000Y-99500000D02*
X116700000Y-93600000D01*
X110700000Y-103900000D02*
X111100000Y-103900000D01*
X133500000Y-106600000D02*
X133500000Y-108200000D01*
X132900000Y-106100000D02*
X133000000Y-106100000D01*
X133000000Y-106100000D02*
X133500000Y-106600000D01*
%TO.N,Net-(J2-D--PadA7)*%
X95900000Y-91300000D02*
X97000000Y-92400000D01*
%TO.N,/RF_MATCH*%
X130800000Y-106300000D02*
X130800000Y-105800000D01*
X130800000Y-105800000D02*
X135300000Y-101300000D01*
%TO.N,/LED_A*%
X118800000Y-98387500D02*
X118800000Y-99200000D01*
X118850000Y-98337500D02*
X118800000Y-98387500D01*
%TO.N,Net-(J2-CC1)*%
X94400000Y-91300000D02*
X94400000Y-90800000D01*
X94400000Y-90800000D02*
X93800000Y-90200000D01*
%TO.N,Net-(J2-CC2)*%
X97400000Y-91300000D02*
X96200000Y-90100000D01*
%TO.N,/UART_TXC*%
X113000000Y-98900000D02*
X116600000Y-102500000D01*
%TO.N,Net-(R6-Pad2)*%
X129400000Y-93900000D02*
X130800000Y-93900000D01*
X111800000Y-103100000D02*
X111600000Y-103300000D01*
X119800000Y-96300000D02*
X116900000Y-99200000D01*
X113000000Y-103100000D02*
X111800000Y-103100000D01*
X126100000Y-96300000D02*
X119800000Y-96300000D01*
X126800000Y-95600000D02*
X126100000Y-96300000D01*
%TD*%
M02*
